<?xml version="1.0" encoding="UTF-8"?>
<svg id="Capa_2" data-name="Capa 2" xmlns="http://www.w3.org/2000/svg" viewBox="0 0 1100.61 160.72">
  <defs>
    <style>
      .cls-1 {
        fill: #ff7cae;
        stroke-width: 0px;
      }
    </style>
  </defs>
  <g id="Capa_1-2" data-name="Capa 1">
    <g>
      <g>
        <path class="cls-1" d="M89.83,3.82l-.04,28.14h-3.19c-1-15.62-14.18-24.8-29.62-24.8h-9.54c-9.05,0-16.4,7.34-16.4,16.4v29.55h13.14c10.09,0,15.13-5.51,15.13-16.53h2.77v36.77h-2.77c0-11.22-5.04-16.83-15.13-16.83h-13.14v36.17c0,12.33,7.77,18.5,23.3,18.5,21.74,0,31.38-9.15,32.38-28.3h3.1v31.6l-89.83-.34v-3.03c8.62-.2,12.93-4.78,12.93-13.72V20.72c.05-9.4-4.26-14.03-12.93-13.87v-3.03h89.83Z"/>
        <path class="cls-1" d="M124.36,96.49c0,10.19,3.32,15.36,9.95,15.5v2.48h-37.37v-2.48c6.82-.14,10.23-5.31,10.23-15.5V21.81c.14-8.39-4.21-16.74-11.18-15.43v-2.62l28.37.58v92.15Z"/>
        <path class="cls-1" d="M192.34,45.52c5.97,6.63,9.19,15.46,9.66,26.52h-51.37c-.61,9.56,1.42,17.78,6.11,24.65,4.69,6.82,10.54,10.13,17.55,9.94,6.06-.15,11.15-2.42,15.27-6.8,4.12-4.38,7.2-10.16,9.24-17.33h2.27c-1.94,10.01-6.04,17.86-12.29,23.53-6.21,5.63-13.59,8.44-22.17,8.44-9.47,0-17.55-3.74-24.23-11.21-6.54-7.37-9.8-16.53-9.8-27.49s3.27-20.84,9.8-28.46c6.63-7.82,15.16-11.73,25.58-11.73s18.49,3.31,24.37,9.94ZM159.95,42.23c-2.18,2.04-3.89,4.66-5.12,7.84-1.23,3.09-2.16,6.2-2.77,9.34-.62,3.04-1.02,6.03-1.21,8.96h32.9c.14-3.73-.26-7.74-1.21-12.03-.85-4.33-2.63-8.34-5.33-12.03-2.65-3.73-5.85-5.53-9.59-5.38-2.84.1-5.4,1.19-7.67,3.29Z"/>
        <path class="cls-1" d="M265.81,42.59c4.17,4.52,6.25,10.99,6.25,19.42v33.66c0,10.66,3.27,16.07,9.8,16.22v2.59h-36.45v-2.59c6.54-.15,9.81-5.56,9.81-16.22v-36.17c.05-4.62-1.23-8.61-3.84-11.96-2.56-3.4-5.99-5.07-10.3-5.03-3.84,0-7.11,1.7-9.81,5.1-2.6,3.35-3.91,7.31-3.91,11.88v36.17c0,10.66,3.32,16.07,9.95,16.22v2.59h-37.16v-2.59c6.68-.15,10.02-5.56,10.02-16.22v-41.5c0-8.73-2.98-16.05-10.02-16.05v-2.53l26.76.49.45,10.25c5.49-6.85,12.5-10.28,21.03-10.28,7.25-.2,13.05,1.98,17.41,6.55Z"/>
        <path class="cls-1" d="M344.78,109.06c-2.37-.74-3.55-3.41-3.55-8v-37.19c.05-6.62-.92-11.95-2.91-16-3.99-10.27-19.1-12.32-29.03-11.64-1.67.18-3.38.45-5.16.91-8.23,2.08-15.58,10.63-18.33,19.07l2.29-.03c4.08-6.25,8.21-10.36,13.45-13.35,5.24-2.99,10.78-3.69,16.62-2.09,3.26,1.36,6.16,3.73,6.23,8.55.14,8.44-8.95,16.03-27.28,22.74-10.99,3.95-16.48,11.06-16.48,21.34,0,6.37,2.01,11.43,6.04,15.19,4.12,3.7,9.24,5.68,15.34,5.93,5.49.05,10.18-1.06,14.07-3.33,4.03-2.37,6.96-5.11,8.81-8.22.57,7.36,5.64,11.04,15.2,11.04,5.07,0,10.25-1.85,15.56-5.56v-2.6c-3.79,2.57-8.17,3.86-10.87,3.26ZM324.39,81.95c0,7.51-1.3,13.7-3.91,18.59-2.51,4.84-6.13,7.26-10.87,7.26-3.89.05-6.85-1.48-8.88-4.59-1.94-3.11-2.98-6.69-3.13-10.74-.05-4.1.76-7.75,2.42-10.96,1.66-3.26,4.24-5.75,7.75-7.48,8.43-4.39,13.97-8.15,16.62-11.26v19.19Z"/>
      </g>
      <g>
        <g>
          <path class="cls-1" d="M444.36,4.85c7.61,0,14.79,1.43,21.54,4.29,6.89,3.01,12.77,6.98,17.62,11.9,4.85,5.02,8.68,10.77,11.49,17.25,3.04,6.88,4.61,13.99,4.71,21.32.38,15.02-4.26,27.93-13.91,38.73-9.61,10.75-21.4,16.12-35.38,16.12h-60.71v-3.01c8.7-.15,13.06-4.69,13.06-13.64V21.65c0-9.04-4.35-13.64-13.06-13.79v-3.01h54.65ZM420.89,93.15c0,11.9,6.68,17.85,20.05,17.85,5.42,0,10.32-.8,14.7-2.41,4.42-1.61,8.73-4.77,12.91-9.49,4.09-4.62,7.16-10.22,9.2-16.8,2.19-6.88,3.18-14.44,2.99-22.68-.43-14.32-4.87-26.45-13.34-36.39-4.09-4.82-9.23-8.54-15.41-11.15-6.18-2.61-12.34-3.92-18.48-3.92h-12.63v84.99Z"/>
          <path class="cls-1" d="M564.7,43.97c6.32,7.31,9.63,16.99,9.92,29.03,0,11.58-3.59,21.39-10.77,29.42-7.14,8.03-15.65,12.04-25.54,12.04s-18.19-3.86-25.04-11.58c-6.75-7.67-10.13-17.14-10.13-28.42s3.4-21.39,10.2-29.42c6.85-8.13,15.62-12.17,26.32-12.12,10.46.05,18.81,3.73,25.04,11.04ZM526.89,47.76c-3.28,7.31-4.92,16.17-4.92,26.56s1.64,18.77,4.92,25.87c3.28,6.95,7.28,10.42,11.98,10.42s9.01-3.63,12.34-10.89c3.42-7.26,5.14-16.14,5.14-26.64s-1.45-19.69-4.35-26.33c-2.9-6.69-7.01-10.04-12.34-10.04s-9.39,3.68-12.77,11.04Z"/>
          <path class="cls-1" d="M703.71,35.26h27.32v60.83c.05,10.33,3.35,15.71,9.92,16.13v2.77h-37.24v-2.77c6.66-.37,9.96-5.75,9.92-16.13v-44.28c.05-8.7-3.26-15.1-9.92-13.78v-2.77Z"/>
          <path class="cls-1" d="M904.92,108.45c-4.18-4.65-6.3-11.23-6.35-19.75v-34.23c0-10.84-3.28-16.34-9.85-16.5v-2.63h26.75v55.92c0,4.6,1.31,8.65,3.93,12.16,2.61,3.41,6.04,5.11,10.27,5.11,3.9,0,7.21-1.73,9.92-5.19,2.61-3.41,3.9-7.44,3.85-12.08l.07-36.71c0-10.84-3.33-16.34-9.99-16.49v-2.63l27.25-.08v60.49c0,9.14,3.35,17.78,10.06,16.54v2.59l-16.43.1c-5.81.04-10.69-4.46-10.96-10.24v-.17c-5.43,6.92-12.47,10.4-21.12,10.46-7.23.16-13.03-2.06-17.41-6.66Z"/>
          <path class="cls-1" d="M1030.83,45.37c5.99,6.68,9.23,15.61,9.7,26.76h-51.58c-.62,9.65,1.43,17.94,6.13,24.88,4.71,6.89,10.58,10.23,17.62,10.03,6.09-.15,11.2-2.44,15.34-6.86,4.14-4.42,7.23-10.25,9.27-17.49h2.28c-1.95,10.1-6.06,18.02-12.34,23.75-6.23,5.68-13.65,8.52-22.26,8.52-9.51,0-17.62-3.77-24.33-11.31-6.56-7.44-9.85-16.69-9.85-27.75s3.28-21.03,9.85-28.72c6.66-7.89,15.22-11.84,25.68-11.84s18.57,3.34,24.47,10.03ZM998.3,42.05c-2.19,2.06-3.9,4.7-5.14,7.92-1.24,3.12-2.16,6.26-2.78,9.42-.62,3.07-1.02,6.08-1.21,9.05h33.03c.14-3.77-.26-7.82-1.21-12.14-.86-4.37-2.64-8.42-5.35-12.14-2.66-3.77-5.87-5.58-9.63-5.43-2.85.1-5.42,1.21-7.7,3.32Z"/>
          <path class="cls-1" d="M1095.18,39.13h0s-32.46,72.03-32.46,72.03h13.77c12.13,0,19.45-9.16,21.97-27.49h2.14l-.77,31.28h-51.15c-1.98,0-3.58-1.63-3.58-3.63h0s31.46-72.19,31.46-72.19h-8.2c-11.32,0-17.64,7-18.98,21.01h-2.14l.04-24.8h44.16c2.07,0,3.74,1.7,3.74,3.79Z"/>
          <path class="cls-1" d="M690.52,95.88v-34.19c0-8.56-2.09-15.13-6.25-19.72-4.36-4.64-10.16-6.86-17.41-6.65-.36,0-.71.04-1.06.06-.45-.02-.9-.06-1.36-.06-8.28-.05-14.85,3.5-19.78,10.44-.37.36-.77.69-1.2.99-.88-1.77-1.92-3.39-3.18-4.78-4.36-4.64-10.16-6.86-17.41-6.65-8.53,0-15.54,3.48-21.03,10.44l-.45-10.41-26.76-.5v2.57c7.03,0,10.02,7.43,10.02,16.3v42.16c0,10.83-3.34,16.32-10.02,16.48v2.63h37.16v-2.63c-6.63-.15-9.95-5.65-9.95-16.48v-36.74c0-4.64,1.3-8.66,3.91-12.07,2.7-3.45,5.97-5.18,9.81-5.18,4.31-.05,7.74,1.65,10.3,5.1,2.6,3.4,3.88,7.45,3.84,12.15v36.74c0,10.83-3.27,16.32-9.81,16.48v2.63h35.9v-2.63c-6.63-.15-9.95-5.65-9.95-16.48v-36.74c0-4.64,1.3-8.66,3.91-12.07,2.7-3.45,5.97-5.18,9.81-5.18,4.31-.05,7.74,1.65,10.3,5.1,2.6,3.4,3.88,7.45,3.84,12.15v36.74c0,10.83-3.27,16.32-9.81,16.48v2.63h36.45v-2.63c-6.54-.15-9.8-5.65-9.8-16.48Z"/>
          <path class="cls-1" d="M809.99,41.97c4.17,4.59,6.25,11.16,6.25,19.72v34.19c0,10.83,3.27,16.32,9.8,16.48v2.63h-36.45v-2.63c6.54-.15,9.81-5.65,9.81-16.48v-36.74c.05-4.69-1.23-8.74-3.84-12.15-2.56-3.45-5.99-5.15-10.3-5.1-3.84,0-7.11,1.73-9.81,5.18-2.6,3.4-3.91,7.43-3.91,12.07v36.74c0,10.83,3.32,16.32,9.95,16.48v2.63h-37.16v-2.63c6.68-.15,10.02-5.65,10.02-16.48v-42.16c0-8.87-2.98-16.3-10.02-16.3v-2.57l26.76.5.45,10.41c5.49-6.96,12.5-10.44,21.03-10.44,7.25-.21,13.05,2.01,17.41,6.65Z"/>
        </g>
        <path class="cls-1" d="M891.51,115.33c-4.24-4.73-9.86-7.68-16.88-8.86-2.33-.33-4.47-.66-6.43-.99-1.81-.31-3.62-.55-5.45-.76-1.91-.21-3.84-.43-5.8-.64-1.95-.21-4.09-.42-6.43-.64-3.41-.21-5.99-.72-7.74-1.52s-2.63-2.05-2.63-3.75c0-2.23,1.17-3.77,3.51-4.63,2.34-.85,6.48-1.54,12.42-2.07,10.32-.85,18.07-3.85,23.23-9.01,5.16-5.16,7.74-12.26,7.74-21.3,0-5.96-1.17-10.9-3.51-14.84-.45-.63-1.27-1.79-2.01-2.83-1.19-1.69-2.57-3.25-4.21-4.51-2.1-1.61-4.46-2.92-7.07-3.9-3.8-1.44-7.84-2.15-12.12-2.15s-8.04.72-11.54,2.15c-3.51,1.44-6.55,3.41-9.13,5.9-2.58,2.5-4.58,5.45-5.99,8.86-1.41,3.41-2.12,7.13-2.12,11.17,0,2.77.39,5.45,1.17,8.06.78,2.61,1.83,5.03,3.14,7.26,1.31,2.23,2.9,4.23,4.75,5.98,1.85,1.75,3.85,3.11,5.99,4.07v.64c-4.29.74-7.84,2.55-10.67,5.42-2.83,2.87-4.24,6.17-4.24,9.89,0,4.47,1.41,7.98,4.24,10.53,2.82,2.55,6.96,4.15,12.42,4.79,1.26.21,2.92.43,4.97.64,2.05.21,4.26.48,6.65.8,2.39.32,4.82.66,7.31,1.04,2.48.37,4.89.72,7.23,1.04,3.6.53,6.72,2.21,9.35,5.03,2.63,2.82,3.94,6.35,3.94,10.61,0,2.45-.47,4.59-1.29,6.49-1.18,2.3-2.53,4.36-4.05,6.16-2.47,2.47-5.43,4.15-8.96,4.93-5.92,1.32-11.42.32-16.49-3-5.08-3.32-9.48-8.27-13.22-14.84l-2.21.55c4.34,9.39,10.24,16.12,17.7,20.2l.22.12c13,7.04,29.38,2.58,36.7-10.27.06-.1.12-.2.17-.31,1.95-3.47,3.31-7.26,3.6-11.23.06-.8.09-1.63.09-2.47,0-7.13-2.12-13.06-6.35-17.79ZM848.41,44.89c2.48-4.04,5.82-6.06,10.01-6.06s7.43,1.99,9.71,5.98,3.43,9.6,3.43,16.83-1.15,13.03-3.43,17.07c-2.29,4.04-5.48,6.06-9.57,6.06s-7.55-2.13-10.08-6.38c-2.53-4.25-3.8-9.89-3.8-16.91s1.24-12.55,3.72-16.59Z"/>
      </g>
      <path class="cls-1" d="M728.48,15c5.22-.44,8.42,2.76,12.24.58,2.74-1.56,4.75-5.3,3.99-8.11-1.59-5.87-15.97-10.58-25.3-4.89-10.64,6.48-10.25,23.74-7.49,24.91,2.54,1.08,6.7-11.65,16.56-12.48Z"/>
    </g>
  </g>
</svg>